<svg xmlns="http://www.w3.org/2000/svg" xmlns:xlink="http://www.w3.org/1999/xlink" viewBox="0 0 490 143">
  <defs>
    <path id="a" d="M.351.262h50.291v61.503H.351z"/>
    <path id="c" d="M.106.397h41.811v61.535H.106z"/>
  </defs>
  <g fill="none" fill-rule="evenodd">
    <path fill="rgb(239, 62, 35)" d="M372.235 16.18c0 .446.015.892-.002 1.338-.061 1.545-.17 3.09-.189 4.636-.014 1.145.108 2.292.123 3.439.028 2.25-.019 4.5.046 6.749.09 3.092.217 6.185.404 9.273.078 1.29.383 2.563.525 3.85.219 1.982.336 3.974.59 5.95.19 1.48.528 2.943.801 4.413.244 1.314.006 1.833-1.218 2.369-.587.257-1.225.398-1.847.566-.335.09-.694.092-1.024.195-1.729.538-3.487.795-5.3.652-.337-.027-.685.076-1.027.124-.627.088-1.253.18-1.856.266-.48-.633-.629-1.16-.636-1.873-.022-2.29-.21-4.577-.326-6.865a58.838 58.838 0 01-.082-2.547c-.021-3.05-.01-6.1-.045-9.148-.043-3.745-.188-7.49-.17-11.233.037-7.895.15-15.79.238-23.685.001-.145.057-.29.087-.43.463-.47 1.05-.286 1.57-.283 1.556.01 3.052-.287 4.57-.608 3.11-.656 6.253-1.164 9.387-1.702.97-.167 1.528.203 1.97 1.202.947 2.147 1.86 4.309 2.826 6.446.472 1.043 1.033 2.045 1.555 3.065.932 1.82 1.863 3.64 2.797 5.46.547 1.064 1.015 2.182 1.662 3.181 2.443 3.768 4.943 7.497 7.427 11.238.106.16.26.288.52.57.415-.637.843-1.177 1.143-1.782.687-1.385 1.31-2.802 1.96-4.207 1.927-4.17 3.887-8.323 5.77-12.512 1.146-2.549 2.205-5.14 3.242-7.735.387-.967.58-2.012.902-3.008.49-1.52.881-1.78 2.51-1.724 2.385.083 4.771.258 7.155.237 1.174-.01 2.361-.307 3.51-.598 1.398-.353 2.748-.896 4.148-1.24.807-.198 1.674-.238 2.51-.212.876.027 1.434.643 1.507 1.558.052.644.035 1.3-.016 1.947-.348 4.375-.714 8.75-1.072 13.124-.02.249-.028.5-.028.75-.016 5.198-.095 10.399-.02 15.596.05 3.392.41 6.78.473 10.172.069 3.642.268 7.29-.146 10.93-.146 1.28-.175 2.575-.269 4.026-1.18 0-2.216.005-3.25-.002-.907-.006-1.768.122-2.612.516-1.824.85-3.786.791-5.728.684-.935-.052-1.423-.589-1.563-1.528-.058-.393-.042-.798-.043-1.198-.006-3.5-.055-7 0-10.499.074-4.694.167-9.39.37-14.079.137-3.138.511-6.265.718-9.401.112-1.695.1-3.397.131-5.096.004-.176-.074-.353-.195-.889-1.626 3.223-3.111 6.152-4.581 9.087-.67 1.338-1.376 2.664-1.952 4.042-1.482 3.545-2.857 7.136-4.361 10.671-.976 2.295-2.088 4.532-3.17 6.78-.424.883-1.17 1.339-2.163 1.345-.798.005-1.6-.053-2.393.015-1.482.13-2.958.335-4.438.499-.543.06-1.089.127-1.633.131-.924.007-1.606-.415-2.069-1.233-1.573-2.78-3.167-5.548-4.742-8.326a12.164 12.164 0 01-.638-1.354 89.823 89.823 0 00-5.918-11.765c-1.869-3.128-3.68-6.29-5.523-9.434-.198-.338-.429-.657-.645-.984l-.257.088M307.295 75.394c.48-.031.906-.083 1.333-.083 3.122 0 6.246.079 9.366-.004 2.395-.064 3.875 1.084 4.705 3.245.745 1.94 1.476 3.889 2.125 5.864 1.967 5.98 4.252 11.831 6.747 17.603.823 1.904 1.421 3.908 2.166 5.849.595 1.55 1.257 3.073 2.026 4.939.152-.567.237-.776.262-.992.294-2.51.608-5.018.853-7.534.154-1.579.177-3.17.3-4.753.279-3.61.584-7.217.876-10.826.024-.297.018-.596.035-.894.187-3.518.363-7.037.571-10.554.101-1.706.71-2.257 2.417-2.254 1.658.003 3.316.036 4.924.529 1.56.476 2.028 1.041 1.998 2.655-.077 4.069-.191 8.137-.308 12.206-.061 2.13-.14 4.261-.248 6.39-.112 2.229-.266 4.455-.405 6.683-.04.643-.11 1.284-.135 1.927-.188 4.564-.418 9.126-.532 13.691-.091 3.672-.037 7.348-.05 11.023-.003.745-.027 1.49-.02 2.236.009 1.091-.558 1.759-1.499 2.153a7.092 7.092 0 01-.968.337c-2.543.658-5.078 1.395-7.745 1.242-.531-.03-1.058-.15-1.59-.206-.95-.1-1.656-.568-2.08-1.437-.825-1.687-1.685-3.359-2.431-5.08-.689-1.588-1.201-3.254-1.88-4.847-.502-1.18-1.148-2.297-1.725-3.444-1.022-2.03-2.164-4.006-3.033-6.101-1.743-4.204-3.335-8.473-4.991-12.714-.071-.182-.172-.351-.3-.61-.46.455-.422.991-.458 1.502-.531 7.583-.637 15.177-.66 22.775-.009 2.83-.133 5.66-.242 8.487-.077 2.012-1.136 3.258-3.063 3.512-.997.132-2.027.097-3.037.042-.97-.053-1.931-.247-2.9-.35-1.972-.213-2.627-.92-2.647-2.993-.033-3.478-.054-6.957-.052-10.436.005-7.007.051-14.015.036-21.022-.01-4.425.373-8.82.8-13.215.068-.69.07-1.39.067-2.085-.01-2.788.445-5.528.796-8.28.139-1.081.267-2.164.41-3.245.037-.286.112-.566.186-.93M368.598 124.423c.477.047.725.1.97.09 3.313-.132 6.625-.27 9.937-.42.247-.01.492-.098.735-.16 3.011-.766 5.708-2.2 8.251-3.94a4.223 4.223 0 001.146-1.18c1.495-2.347 2.612-4.849 3.145-7.606.547-2.832.476-5.69.583-8.547.118-3.161-.692-6.048-2.05-8.846-.766-1.576-1.835-2.868-3.268-3.87-.783-.546-1.567-1.092-2.327-1.669-1.903-1.444-4.017-2.428-6.312-3.088-3.78-1.087-7.662-1.566-11.548-2.04-.42-.051-.855.018-1.352.034.184 1.406.415 2.64.496 3.883.243 3.704.479 7.41.62 11.12.151 4.012.184 8.028.285 12.042.092 3.663.188 7.326.324 10.987.04 1.038.232 2.07.365 3.21m-12.424-8.734c0-4.32.025-8.64-.007-12.96-.028-3.714-.184-7.428-.165-11.141.017-3.614.081-7.233.328-10.836.136-1.983.056-4.006.702-5.958.237-.718.538-1.006 1.227-1.016 1.572-.027 3.062-.42 4.564-.866.987-.293 2.078-.321 3.121-.315 1.559.011 3.09-.029 4.648-.254 1.877-.271 3.801-.23 5.706-.305.804-.031 1.61-.003 2.414-.024 1.361-.037 2.713-.037 4.011.48.274.109.59.122.888.163 2.012.273 3.93.759 5.596 2.028.546.416 1.254.628 1.902.901 3.412 1.442 6.012 3.791 7.806 7.017 2.373 4.266 4.366 8.71 5.846 13.359.482 1.514.705 3.134.86 4.724.212 2.194.282 4.404.346 6.609.054 1.807.031 3.617.005 5.425a31.195 31.195 0 01-1.711 9.74c-1.269 3.688-3.577 6.594-7.032 8.514-.304.17-.625.356-.96.416-1.605.287-3.03.995-4.478 1.702-.931.455-2.013.591-3.01.923-1.089.363-2.204.693-3.224 1.206-1.56.783-3.147 1.212-4.909 1.23-2.959.029-5.915.248-8.875.304-2.463.047-4.928-.058-7.392-.034-1.2.012-2.398.181-3.599.252-.498.03-1.01.051-1.5-.03-1.948-.321-2.22-.768-2.482-2.751-.812-6.154-.333-12.336-.626-18.503M90.002 123.67c.128-1.857.228-3.716.39-5.57.246-2.81.526-5.617.805-8.424.219-2.206.465-4.41.685-6.616.659-6.6.138-13.222.352-19.83.017-.503-.002-1.016.087-1.507.205-1.133.804-1.764 1.906-1.72 2.305.09 4.623.246 6.818 1.06 1.467.543 1.96 1.376 1.955 3.014-.013 3.38.03 6.758-.45 10.123-.24 1.69-.14 3.43-.338 5.13-.262 2.248-.675 4.476-1.003 6.717-.11.746-.16 1.5-.229 2.252-.174 1.904-.356 3.808-.512 5.714-.124 1.507-.306 3.017-.302 4.525.012 4.19.133 8.38.156 12.57.01 1.864-.093 3.73-.18 5.595-.06 1.321-.31 1.556-1.554 1.741-2.397.356-4.791.405-7.194.031-1.065-.166-2.14-.258-3.214-.36-.764-.073-1.244-.515-1.616-1.162-1.149-1.999-2.352-3.967-3.454-5.993-.645-1.187-1.153-2.453-1.693-3.698-1.018-2.35-1.987-4.724-3.03-7.063-.509-1.144-1.13-2.236-1.713-3.344-.28-.533-.608-1.04-.886-1.574-1.714-3.294-3.411-6.597-5.134-9.887-.884-1.687-1.807-3.354-2.722-5.025-.064-.117-.211-.187-.326-.284-1.222 2.74-1.123 5.634-1.232 8.523-.108 2.866-.461 5.722-.717 8.581-.22 2.46-.532 4.914-.664 7.379-.189 3.527-.244 7.062-.372 10.593-.027.755-.147 1.506-.176 2.26-.029.707-.323 1.136-1.011 1.275-1.813.365-3.677.452-5.421 1.197-.463.198-1.072.067-1.611.034-1.049-.066-1.381-.402-1.394-1.522-.02-1.818.003-3.638.029-5.456.089-6.26.051-12.525.313-18.776.35-8.325.528-16.65.591-24.98.018-2.37.141-4.74.182-7.11.011-.668.303-1.08.89-1.207 1.053-.23 2.117-.524 3.182-.548 3.296-.075 6.593-.041 9.89-.034.438 0 .876.093 1.314.138.748.075 1.199.512 1.626 1.14 1.286 1.892 1.998 4.051 2.8 6.159 1.895 4.98 3.78 9.97 5.525 15.007 2.29 6.612 5 13.044 7.673 19.494.208.501.479.975.72 1.462l.259-.024M216.513 17.072c.046.791.068 1.435.125 2.075.25 2.833.535 5.664.756 8.5.082 1.045.01 2.102.034 3.153.025 1.08.043 1.181 1.14 1.41 1.117.232 2.267.386 3.407.413 3.7.088 7.408-.008 11.1.19 1.866.099 3.666.131 5.482-.34 2.083-.538 4.001-1.4 5.239-3.196.838-1.218 1.49-2.609 1.987-4.008.86-2.427-.43-5.287-2.579-6.582-3.002-1.811-6.22-2.745-9.666-2.815-2.743-.056-5.514-.036-8.228.303-2.38.296-4.74.673-7.147.649-.485-.005-.972.14-1.65.248M207.977 6.54c.82-.094 1.65-.225 2.486-.277 1.895-.118 3.793-.198 5.69-.295.2-.011.415.002.594-.07 1.722-.685 3.546-.466 5.322-.668 2.402-.272 4.793-.255 7.19-.192 1.09.029 2.205.125 3.26.39 1.322.33 2.64.458 3.993.545 1.333.086 2.654.418 3.972.683 1.222.245 2.439.522 3.647.828.868.22 1.723.5 2.575.78.57.186 1.115.445 1.685.63 5.563 1.806 8.629 5.669 9.375 11.424.403 3.102.336 6.163-.607 9.203-.6 1.934-1.647 3.546-3.026 4.933a16.742 16.742 0 01-3.956 2.948c-1.446.779-2.776 1.776-4.153 2.684-1.277.84-2.704 1.25-4.181 1.579-1.885.42-3.747.945-5.723 1.451.2.345.347.654.542.927 3.534 4.941 6.54 10.18 8.906 15.78.273.645.613 1.265.833 1.926.307.924.024 1.453-.947 1.632a7.763 7.763 0 01-2.225.07c-1.285-.14-2.535-.387-3.863-.228-1.322.157-2.682.041-4.022-.03-.787-.041-1.403-.416-1.74-1.215-1.359-3.224-2.78-6.423-4.115-9.658-.859-2.08-1.598-4.208-2.41-6.307-.8-2.068-.843-2.116-3.056-1.986-2.03.118-4.057.317-6.171.488-.028.4-.077.788-.077 1.176.003 3.206.145 6.418-.014 9.615-.142 2.85.02 5.687-.033 8.528-.005.29-.052.578-.084.92-1.57 0-3.073.146-4.535-.039-1.674-.212-3.281-.025-4.906.258-.794.139-1.367-.298-1.16-1.022.53-1.865.397-3.782.41-5.657.098-14.527.088-29.055.142-43.582.01-2.55.157-5.1.248-7.65.004-.14.07-.28.134-.522M263.915 3.819c.393-.033.679-.076.965-.077 3.808-.022 7.615-.04 11.422-.055 1.597-.006 3.194.019 4.79-.011 4.556-.085 9.115-.115 13.666-.315 3.393-.148 6.779-.511 10.165-.812.693-.061 1.374-.259 2.057-.411 1.795-.4 2.602.031 2.914 1.8.427 2.423.78 4.861 1.06 7.305.183 1.617-.134 1.939-1.712 2.234-.44.082-.896.177-1.337.15-1.943-.119-3.883-.28-5.824-.425-.299-.023-.6-.085-.896-.067-1.745.109-3.517.08-5.228.39-2.868.518-5.744.733-8.647.835-1.845.065-3.681.358-5.527.448-1.395.068-2.8.004-4.198-.05-1.49-.058-2.978-.172-4.549-.266v1.928c.002 2.57.002 5.139.008 7.708.002.907-.004 1.815.038 2.72.043.912.173 1.031 1.078 1.067.65.025 1.303-.011 1.954.009 6.7.207 13.4.451 20.103.608 1.616.038 2.601.718 2.966 2.594.286 1.468.297 3.002.302 4.507.005 1.561-.419 1.907-2.013 1.92-1.803.016-3.611.095-5.41-.003-3.493-.19-6.876.477-10.233 1.265-1.724.404-3.429.64-5.192.629-.832-.006-1.705-.164-2.545.296-.041.228-.13.472-.121.712.102 2.966.197 5.934.342 8.899.053 1.087.227 1.268 1.268 1.227 3.374-.132 6.672.517 10 .874 1.235.133 2.5.015 3.751-.025.747-.025 1.492-.165 2.239-.178 1.754-.028 3.48-.3 5.217-.489 2.029-.218 4.099-.072 6.15-.04.897.014 1.806.065 2.685.228 1.07.198 2.13.49 3.168.82.62.198.895.724.986 1.39.259 1.89.568 3.773.85 5.66.045.298.067.6.08.902.079 1.878-.578 2.753-2.426 2.924-1.384.128-2.779.154-4.131-.454-.705-.317-1.538-.425-2.322-.467a43.778 43.778 0 00-4.056-.002c-.741.03-1.475.215-2.213.323-1.429.21-2.859.583-4.288.583-2.297.002-4.573.568-6.887.166-.768-.133-1.593.11-2.39.099-2.952-.044-5.903-.177-8.854-.169-2.247.007-4.493.18-6.739.271-.35.014-.702.002-1.051-.024-.689-.051-1.116-.428-1.221-1.114-.115-.743-.198-1.493-.28-2.241-.117-1.046-.24-2.092-.325-3.141-.129-1.601-.289-3.203-.325-4.808-.062-2.77-.024-5.541-.057-8.312-.032-2.615-.158-5.23-.14-7.845.022-3.373.131-6.745.23-10.116.084-2.815.178-5.631.321-8.443.133-2.611.371-5.217.492-7.828.05-1.093-.09-2.196-.126-3.294-.02-.644-.004-1.29-.004-2.009M80.048 42.686c-.54 5.457-.685 10.725-.633 16.18.57.008 1.043.02 1.516.02 2.427-.005 4.855-.02 7.282-.016 1.192.002 2.384.049 3.577.056 3.032.02 6.065.083 9.095.029 3.59-.065 7.12.484 10.666.884 1.135.128 1.506.421 1.632 1.575.227 2.078.386 4.17.428 6.258.025 1.235-.549 1.702-1.762 1.717-2.236.027-4.476.083-6.708-.012-1.127-.047-2.237-.414-3.36-.605-.681-.116-1.372-.236-2.059-.24-4.025-.026-8.052-.075-12.077.01-1.472.03-2.933.434-4.406.611-1.18.142-2.373.286-3.558.272-2.193-.025-4.353.233-6.52.494-.933.111-1.887.086-2.83.053-.974-.035-1.32-.381-1.326-1.415-.013-2.748-.003-5.498.056-8.245.055-2.595.24-5.187.27-7.782.133-12.14.219-24.281.354-36.421.029-2.545.208-5.088.295-7.632.033-.987.005-1.977.005-3.12.67-.116 1.336-.314 2.005-.329 4.123-.087 8.238.02 12.346.433 1.232.125 2.483.041 3.726.05 4.92.036 9.84.046 14.76.117 2.78.04 5.559.17 8.337.286 1.46.06 1.861.518 1.943 2.054.08 1.494.137 2.99.272 4.478.063.69.294 1.362.435 2.045.08.39.174.783.188 1.178.04 1.192-.27 1.477-1.424 1.607-4.797.538-9.61.49-14.425.515-2.278.012-4.556.288-6.832.279-1.98-.009-3.959-.247-5.937-.39-1.628-.12-3.252-.148-4.989.021-.041.526-.104.957-.105 1.388-.008 2.7.015 5.398-.01 8.097-.011 1.096-.121 2.19-.185 3.286-.049.84.06 1.018.902 1.268.424.126.868.2 1.309.256 2.899.37 5.793.807 8.702 1.06 1.669.144 3.366.029 5.046-.057 1.531-.078 3.057-.28 4.586-.413.294-.025.601-.01.891.045.873.164 1.256.588 1.433 1.484.269 1.366.54 2.731.832 4.092.272 1.27-.08 1.84-1.461 2.042-1.813.265-3.647.395-5.459.669-2.247.339-4.508.521-6.73 1.134-1.743.48-3.624.501-5.45.615-1.48.092-2.971.019-4.643.019M226.505 140.94c-1.104 0-2.214-.082-3.31.015-3.107.277-5.888-.754-8.376-2.394-2.267-1.494-4.032-3.549-5.234-6.092-1.065-2.255-1.31-4.644-1.478-7.036-.177-2.507-.077-5.033-.094-7.551a5.568 5.568 0 01.048-.754c.18-1.379.75-1.928 2.14-2.071.05-.005.1-.01.151-.008 2.103.058 4.209.07 6.308.193 1.244.073 1.502.46 1.61 1.724.16 1.852.333 3.704.544 5.55.055.49.178 1.011.42 1.431.911 1.586 2.01 3.05 3.672 3.892.78.395 1.692.575 2.566.719.684.113 1.405-.03 2.102.03 1.247.104 2.266-.369 3.14-1.185.584-.546 1.11-1.159 1.63-1.77 1.32-1.554 1.228-3.254.323-4.923a11.758 11.758 0 00-3.422-3.932c-2.012-1.486-4.198-2.545-6.485-3.44-1.431-.56-2.724-1.36-3.781-2.417-2.34-2.34-4.733-4.621-6.795-7.252-2.256-2.88-2.684-5.972-1.89-9.377.805-3.459 2.365-6.6 3.977-9.742 1.35-2.635 3.47-4.533 5.503-6.53 1.157-1.137 2.769-1.431 4.292-1.651 1.826-.264 3.687-.36 5.534-.369 1.958-.009 3.898.224 5.646 1.277.321.194.756.265 1.14.274 2.607.062 5.361 1.463 7.004 3.497.913 1.131 1.994 2.129 2.89 3.272 1.574 2.008 2.71 4.222 2.708 6.871-.001.554-.044 1.111 0 1.662.155 1.933-1.273 3.996-3.516 4.49-2.294.504-4.63.825-6.957 1.17-.996.15-1.895-.53-2.213-1.646-.26-.915-.39-1.867-.6-2.797-.395-1.738-1.097-3.334-2.173-4.767-.743-.992-1.672-1.391-2.886-1.128a6.496 6.496 0 01-1.042.14c-1.973.098-3.362 1.195-4.497 2.685-.802 1.052-1.097 2.286-.819 3.571.332 1.538.928 3.026 1.985 4.183 1.451 1.59 2.977 3.142 4.646 4.49 1.11.898 2.527 1.412 3.808 2.095 1.944 1.037 3.942 1.984 5.82 3.13 2.191 1.337 3.527 3.368 4.162 5.876.498 1.966.574 3.964.725 5.973.169 2.242-.005 4.426-.44 6.594-.793 3.94-2.55 7.445-5.378 10.278-2.371 2.373-5.261 3.82-8.745 3.736-1.453-.035-2.909-.006-4.363-.006v.02zM255.5 77.57c1.844.127 3.338-.546 4.891-1.083 2.22-.77 4.49-.529 6.773.044.274 1.108.13 2.153.072 3.183-.154 2.742-.353 5.481-.544 8.221-.217 3.137-.444 6.274-.667 9.41-.035.498-.094.996-.098 1.494-.036 4-.014 8-.104 11.998-.062 2.788.49 5.472 1.197 8.124.874 3.274 3.036 5.244 6.415 5.619 2.881.32 5.765.263 8.542-.785 1.441-.544 2.54-1.47 3.483-2.697 2.332-3.033 3.152-6.498 3.2-10.243.044-3.446-.014-6.908.296-10.334.435-4.799.278-9.587.195-14.382-.03-1.797-.14-3.592-.205-5.388-.012-.349-.019-.706.04-1.047.164-.98.706-1.553 1.697-1.57 1.84-.032 3.686-.027 5.521.095 1.355.09 2.137.862 2.359 2.278.301 1.921.497 3.86.694 5.795.156 1.538.28 3.08.36 4.624.14 2.692.289 5.385.333 8.079.052 3.199.093 6.403-.037 9.598-.12 2.938-.39 5.877-.749 8.796-.334 2.718-.666 5.468-1.384 8.098-.678 2.485-1.808 4.853-2.836 7.231-.483 1.116-1.396 1.924-2.447 2.56-1.744 1.055-3.364 2.341-5.34 2.961-.798.25-1.628.483-2.455.54-1.934.134-3.876.227-5.813.209-2.683-.025-5.365-.156-8.046-.27-.49-.022-.98-.164-1.461-.284-1.35-.336-2.688-.658-4.1-.721-.807-.037-1.649-.382-2.38-.767-2.101-1.106-4.008-2.514-5.068-4.706-.733-1.517-1.289-3.14-1.744-4.767-1.093-3.906-1.651-7.909-1.824-11.96-.127-2.992-.284-5.987-.264-8.98.015-2.341.302-4.68.43-7.022.067-1.247.006-2.501.084-3.747.213-3.387.443-6.773.716-10.154.149-1.834.397-3.643.022-5.494-.15-.74.136-1.567.246-2.557M37.118 72c-1.852-.157-3.595-.262-5.328-.462-2.624-.302-4.64-1.795-6.402-3.597-1.845-1.888-3.56-3.904-5.302-5.89-1.853-2.118-2.72-4.697-3.544-7.339-1.468-4.696-1.754-9.466-1.412-14.327.126-1.789.134-3.59.096-5.384-.057-2.638.566-5.126 1.415-7.59 1.56-4.528 3.954-8.576 6.805-12.405a32.938 32.938 0 015.085-5.455c1.13-.962 2.443-1.53 3.833-1.967.238-.074.496-.09.724-.184 3.662-1.51 7.503-1.507 11.355-1.307 2.503.13 4.958.537 7.173 1.84.341.2.713.391 1.095.472 1.85.393 3.254 1.484 4.482 2.828 1.715 1.877 3.47 3.73 4.442 6.147 1.042 2.585 2.128 5.153 3.136 7.751.528 1.359.14 2.492-1.136 3.191a9.51 9.51 0 01-2.654.949c-1.462.295-2.954.439-4.435.635-1.345.178-2.006-.338-2.27-1.749-.318-1.711-.582-3.435-.968-5.132-.497-2.188-1.618-3.972-3.743-4.93-.672-.303-1.42-.58-2.142-.603-2.39-.075-4.784-.086-7.146.459-2.425.56-4.586 1.668-6.625 3.043-1.48.999-2.597 2.344-3.428 3.9-2.555 4.782-4.64 9.773-4.962 15.23-.25 4.245.17 8.481 2.727 12.169.226.326.427.68.583 1.044 1.335 3.127 4.001 4.45 7.086 5.125 2.988.654 5.798-.083 8.61-1.134 3.235-1.21 5.742-3.415 8.182-5.677 1.138-1.055 1.849-2.575 2.73-3.9.275-.413.457-.887.71-1.316.573-.977 1.218-1.17 2.253-.675.268.128.508.316.769.463 1.173.659 2.299 1.435 3.536 1.939 1.589.645 2.277 1.902 1.573 3.745-.373.977-.83 1.922-1.19 2.903-1.704 4.626-4.831 8.251-8.398 11.476-1.912 1.727-4.304 2.906-6.706 3.859-1.744.69-3.636 1.067-5.497 1.387-1.712.295-3.47.328-5.112.468"/>
    <g transform="translate(1 81)">
      <mask id="b" fill="#fff">
        <use xlink:href="#a"/>
      </mask>
      <path fill="rgb(239, 62, 35)" d="M39.765 29.722c-.276-1.942-.675-4.156-.881-6.389a20.631 20.631 0 00-1.281-5.537c-.906-2.357-2.129-4.579-3.94-6.307-2.098-2.003-4.82-2.893-7.59-3.55-.23-.054-.495-.02-.733.025-3.45.65-6.633 1.944-9.522 3.982-1.665 1.176-2.98 2.673-3.853 4.497-2.133 4.45-3.606 9.104-3.82 14.088-.059 1.347-.087 2.72.098 4.049.346 2.485 1.087 4.88 2.052 7.195a20.073 20.073 0 004.292 6.443c.991 1.002 2.183 1.799 3.549 2.113 2.89.664 5.779 1.416 8.784 1.282.585-.026 1.207-.059 1.74-.273 2.95-1.185 5.332-3.041 6.687-6.048.184-.41.382-.819.618-1.2 2.679-4.3 3.293-9.151 3.8-14.37M.422 31.634c-.206-3.603.024-7.142.888-10.614.373-1.5.775-3.008 1.348-4.438.87-2.175 1.816-4.33 2.887-6.412 1.086-2.108 2.74-3.7 4.609-5.198 2.951-2.366 6.333-3.481 9.891-4.154 3.406-.644 6.86-.66 10.332-.392 2.97.229 5.845.95 8.719 1.588 2.663.592 4.822 2.336 6.396 4.62 3.274 4.75 5.188 9.97 5.15 15.848-.027 4.06-.103 8.131-.96 12.097-1.162 5.373-2.425 10.743-4.779 15.748-1.214 2.583-2.664 5.063-4.554 7.19-2.351 2.644-5.436 3.983-8.923 4.182-2.369.135-4.753.025-7.13-.009-.637-.009-1.28-.107-1.91-.222-3.963-.723-7.839-1.719-11.212-4.083-2.923-2.049-5.386-4.557-7.191-7.68a62.908 62.908 0 01-1.648-3.026c-.755-1.489-1.068-3.111-1.297-4.752-.477-3.425-.743-6.864-.616-10.293" mask="url(#b)"/>
    </g>
    <path fill="rgb(239, 62, 35)" d="M427.05 95.508c0-.853.1-1.646-.019-2.403-.34-2.186-.767-4.359-1.166-6.535-.044-.241-.073-.52-.212-.699-.156-.201-.435-.435-.648-.423-.217.012-.427.296-.62.483-.059.057-.054.184-.074.281-.547 2.697-1.107 5.39-1.627 8.093-.08.421-.066.91.07 1.308.082.242.506.55.739.521 1.14-.142 2.268-.388 3.557-.626m1.335 12.15c-1.259.2-2.355.383-3.455.546a7.061 7.061 0 01-1.144.083c-1.103-.017-1.492.194-1.787 1.304-.466 1.762-.831 3.551-1.26 5.323-.947 3.93-1.932 7.852-2.854 11.788-.481 2.057-.86 4.139-1.31 6.335-.458.047-.93.139-1.4.136-2.343-.018-4.645.326-6.937.77-.94.181-1.281-.046-1.234-1.002.063-1.275.192-2.551.378-3.813.317-2.145.723-4.276 1.047-6.42.258-1.706.386-3.434.684-5.132.512-2.912 1.152-5.801 1.66-8.715.519-2.962.936-5.942 1.41-8.912.381-2.384.777-4.765 1.175-7.147.259-1.555.539-3.108.797-4.663.332-1.993.661-3.987.975-5.983.451-2.876.897-5.752 1.732-8.546.155-.518.325-1.041.571-1.518.463-.895 1.245-1.29 2.196-.996 2.799.865 5.67.708 8.532.708.477 0 .951-.177 1.432-.23 1.25-.137 2.502-.316 3.757-.355 1.223-.039 1.726.495 1.862 1.778.313 2.944.543 5.898.931 8.832.621 4.692 1.092 9.408 2.042 14.055.443 2.17.602 4.4 1.028 6.574.912 4.644 1.92 9.268 2.877 13.903.727 3.524 1.43 7.054 2.155 10.579.218 1.061.521 2.106.7 3.173.226 1.347-.232 2.06-1.56 2.363-1.038.236-2.104.4-3.165.457-1.357.07-2.723.018-4.085-.012-1.364-.031-1.866-.385-2.187-1.702a892.952 892.952 0 01-2.474-10.502c-.887-3.842-1.749-7.69-2.631-11.534-.109-.472-.278-.931-.458-1.525M153.148 89.392l-2.052 8.983c1.532.388 2.899.56 4.463.103-1.333-2.932-1.609-6.01-2.411-9.086m2.469 20.212c-.802 0-1.489.032-2.172-.007a48.81 48.81 0 01-3.237-.268c-.64-.08-1.015.12-1.292.71-2.015 4.294-3.836 8.665-5.235 13.208-.528 1.715-1.158 3.398-1.71 5.106-.566 1.756-1.073 3.533-1.644 5.289-.37 1.137-.837 2.244-1.208 3.382-.318.978-1 1.557-1.948 1.591-2.223.08-4.455.12-6.674.007-1.309-.066-1.71-.855-1.395-2.216 1.062-4.575 2.426-9.06 4.002-13.479 1.105-3.1 2.308-6.169 3.315-9.302 1.146-3.56 2.128-7.173 3.171-10.766.919-3.161 1.933-6.3 2.705-9.497.796-3.303 1.69-6.568 2.782-9.781.016-.047.03-.095.044-.143.457-1.691 1.304-2.587 3.278-2.74 3.136-.243 6.226-1.05 9.355-1.485 1.605-.223 3.25-.183 4.878-.213.743-.012 1.357.386 1.723 1.016.373.64.766 1.326.9 2.04.385 2.056.694 4.13.942 6.209.326 2.723.57 5.457.84 8.188.044.447.03.9.067 1.348.231 2.835.426 5.674.717 8.502.322 3.124.67 6.249 1.125 9.356.562 3.848.872 7.74 1.866 11.518.101.383.181.786.181 1.18.004 2.75.027 5.503-.042 8.253-.042 1.657-.908 2.372-2.586 2.39-1.94.019-3.839-.298-5.733-.672a56.4 56.4 0 00-1.603-.285c-1.406-.236-1.869-.683-2.12-2.098-.227-1.276-.472-2.55-.645-3.835-.624-4.646-1.262-9.292-1.813-13.948-.293-2.475-.417-4.971-.626-7.457-.024-.29-.106-.574-.208-1.1M181.208 67.935c-2.742.36-5.263-.85-7.86-1.737-1.085-.37-2.19-.688-3.274-1.064-3.933-1.363-7.702-2.913-10.812-5.909-2.057-1.983-3.78-4.081-5.013-6.628-.39-.805-.944-1.529-1.372-2.317-1.086-1.998-1.712-4.113-1.829-6.408-.2-3.96.237-7.855 1.006-11.721.251-1.267.639-2.511 1.03-3.745.497-1.568 1.075-3.11 1.593-4.67 1.388-4.173 4.228-7.324 7.4-10.183 1.7-1.532 3.613-2.837 5.487-4.164 3.067-2.171 6.592-3.061 10.277-3.363 1.035-.085 2.1.055 3.14.178 1.828.216 3.68.38 5.377 1.177.756.355 1.499.77 2.177 1.256 4.243 3.042 6.936 7.404 9.814 11.597a7.296 7.296 0 011.12 2.579c.347 1.67-.205 2.547-1.84 3.078-1.184.384-2.42.609-3.634.896-.583.139-1.177.231-1.753.392-1.858.522-2.454.236-3.087-1.514-.356-.985-.675-1.987-1.102-2.94-.236-.528-.562-1.105-1.013-1.432-3.46-2.512-7.3-3.258-11.52-2.505-4.262.762-7.318 3.227-9.932 6.464-1.465 1.814-2.29 3.965-3.367 5.986-.327.616-.603 1.26-.887 1.898-.572 1.29-.903 2.631-.902 4.054 0 2.295-.045 4.6.625 6.824.344 1.14.759 2.278 1.303 3.335.743 1.441 1.833 2.578 3.357 3.297 2.078.981 4.105 2.07 6.167 3.086 1.186.584 2.45.84 3.781.767 2.195-.12 4.407-.087 6.58-.365 1.567-.202 3.098-.758 4.612-1.255.49-.16.923-.592 1.299-.98 2.305-2.373 4.412-4.896 5.831-7.92.148-.316.323-.62.513-.913.699-1.076 1.377-1.23 2.515-.564 1.295.757 2.553 1.58 3.88 2.274.905.473 1.279 1.144 1.03 2.069-.426 1.583-.845 3.181-1.45 4.7-1.496 3.744-3.736 7.07-6.39 10.068-1.51 1.705-3.296 3.217-5.147 4.555-1.58 1.144-3.52 1.645-5.504 1.76-.698.04-1.4.007-2.226.007M442 69.086c.453-.566 1.116-.564 1.758-.592 2.436-.105 4.874-.19 7.31-.302.694-.032 1.386-.185 2.079-.183 1.675.004 2.286.55 2.768 2.148.691 2.285 1.442 4.552 2.179 6.823.476 1.469.944 2.94 1.465 4.393a321.738 321.738 0 002.342 6.294c.392 1.023.834 2.028 1.269 3.034.13.302.316.58.514.939 1.164-.744 1.82-1.83 2.618-2.76 3.928-4.583 6.878-9.759 9.198-15.315.652-1.562 1.441-3.067 2.165-4.599.618-1.306 1.652-1.927 3.093-1.954 2.646-.051 5.279.047 7.883.57 1.195.24 1.608.849 1.215 2.039-.343 1.039-.773 2.051-1.21 3.055-1.096 2.512-2.117 5.062-3.358 7.5-1.105 2.17-2.44 4.226-3.716 6.306-1.042 1.699-2.198 3.329-3.212 5.044-1.708 2.892-3.69 5.57-6.095 7.91-.703.685-.984 1.402-.994 2.368-.04 3.587-.235 7.174-.204 10.76.024 2.733.305 5.464.461 8.197.049.846.069 1.694.09 2.541.02.848-.004 1.695.453 2.47.118.2.152.483.14.724-.077 1.54-.13 3.085-.288 4.619-.102.989-.44 1.282-1.445 1.374-1.488.135-2.984.19-4.474.292-.891.061-1.78.189-2.67.206-1.186.024-2.378.022-3.56-.069-.838-.064-1.333-.624-1.45-1.468a17.937 17.937 0 01-.172-1.628c-.113-2.438-.15-4.881-.32-7.315-.4-5.728-.324-11.458-.23-17.19.016-.993.176-1.984.207-2.977.049-1.531-.39-2.885-1.247-4.205-1.3-2-2.407-4.128-3.572-6.215a145.425 145.425 0 01-2.409-4.472 734.119 734.119 0 01-3.967-7.87c-.376-.754-.778-1.5-.71-2.404.022-.272-.147-.572-.272-.838a202.48 202.48 0 00-2.014-4.167c-.149-.298-.414-.541-.642-.795-.559-.618-.785-1.132-.976-2.288"/>
    <g transform="translate(314)">
      <mask id="d" fill="#fff">
        <use xlink:href="#c"/>
      </mask>
      <path fill="rgb(239, 62, 35)" d="M22.832 12.484c-.63 1.297-1.006 2.41-1.172 3.565-.534 3.704-1.275 7.358-2.28 10.967-.25.894-.636 1.927.152 2.911 2.406-.813 4.931-.013 7.382-.465.069-.297.16-.49.149-.677a32.062 32.062 0 00-1.492-8.064c-.52-1.613-.946-3.237-1.163-4.935-.137-1.077-.436-2.229-1.576-3.302m6.076 26.956c-.778 0-1.379-.032-1.977.005-2.652.167-5.303.346-7.954.534-1.295.092-1.93.98-2.338 2.054-.568 1.495-1.088 3.008-1.61 4.52-1.45 4.201-2.903 8.404-4.328 12.616-.228.675-.58 1.084-1.297 1.283-1.45.405-2.85 1.03-4.318 1.31-1.214.23-2.505.191-3.747.09C.335 61.771-.11 60.8.206 59.665c.442-1.586.932-3.16 1.38-4.744 2.52-8.886 4.972-17.792 7.587-26.65.83-2.817 2.093-5.507 3.158-8.255 1.753-4.523 3.279-9.115 4.342-13.852.239-1.07.636-2.104.89-3.17.231-.976.92-1.331 1.786-1.597C22.37.47 25.456.285 28.587.452c1.867.1 2.55.548 2.97 2.347.315 1.357.463 2.751.685 4.129.728 4.53 1.45 9.06 2.186 13.588.472 2.903 1.044 5.793 1.436 8.706.832 6.19 2.024 12.306 3.732 18.316.627 2.207 1.46 4.36 2.03 6.58.292 1.138.236 2.368.29 3.56.032.729-.364 1.258-1.052 1.48-.563.184-1.166.37-1.746.358-2.21-.047-4.42-.16-6.628-.28-.823-.045-1.183-.363-1.333-1.163-.157-.831-.253-1.675-.352-2.517-.245-2.08-.475-4.162-.715-6.242-.16-1.387-.346-2.77-.484-4.159-.148-1.49-.24-2.984-.387-4.474-.037-.383-.186-.757-.31-1.241" mask="url(#d)"/>
    </g>
    <path fill="rgb(239, 62, 35)" d="M.145 60.732c0-2.524.017-5.049-.007-7.573-.011-1.259-.157-2.518-.136-3.776.062-3.781.028-7.574.306-11.34.372-5.047.125-10.09.244-15.134.074-3.126.155-6.252.193-9.379a64.7 64.7 0 00-.111-4.324c-.039-.702.29-1.157.753-1.54 1.29-1.07 2.729-1.766 4.43-1.654a65.79 65.79 0 013.053.28c.286.033.568.146.839.256 1.033.416 1.38.924 1.272 2.084-.204 2.205-.463 4.404-.697 6.606-.053.5-.12 1-.137 1.502-.141 4.493.263 8.967.448 13.45.08 1.91-.05 3.828-.084 5.743-.014.757-.024 1.514-.044 2.27-.127 4.74-.195 9.483-.403 14.219-.172 3.924-.532 7.838-.76 11.76-.091 1.56-.094 3.13-.062 4.693.025 1.179-.463 1.794-1.511 2.27-1.812.822-3.675.935-5.582.814-1.37-.085-1.89-.657-1.904-2.14-.03-3.028-.01-6.058-.01-9.087h-.09z"/>
  </g>
</svg>
